# xmcd CD database file
# Copyright (C) 1993-1998 Ti Kan
#
# Track frame offsets:
#	150
#	14772
#	27665
#	36460
#	52932
#	80065
#	101940
#	117277
#	119812
#	152497
#	170345
#	172377
#
# Disc length: 2723 seconds
#
# Revision: 0
# Processed by: cddbd v1.4b41PL1 Copyright (c) Steve Scherf et al.
# Submitted via: CDmax 1.5.3
#
DISCID=af0aa10c
DTITLE=Troy Bateson - The Story Singer
DYEAR=1900
DGENRE=
TTITLE0=Outlaw John
TTITLE1=God's Footstool
TTITLE2=Gentle Shepherd
TTITLE3=Already Lonesome
TTITLE4=Soft Velvet Night
TTITLE5=Farther Along
TTITLE6=Rimrock Canyon Suite: Hitch Hiker
TTITLE7=Rimrock Canyon Suite: Flute Call
TTITLE8=Rimrock Canyon Suite: Letter from the Trail - Moonlight on my Saddle
TTITLE9=Rimrock Canyon Suite: An Apple for a Lady
TTITLE10=Rimrock Canyon Suite: Flute Call
TTITLE11=Rimrock Canyon Suite: Spring Gatherin'
EXTD=
EXTT0=
EXTT1=
EXTT2=
EXTT3=
EXTT4=
EXTT5=
EXTT6=
EXTT7=
EXTT8=
EXTT9=
EXTT10=
EXTT11=
PLAYORDER=
